<svg xmlns="http://www.w3.org/2000/svg" width="30" height="18" viewBox="0 0 30 18"><path fill="#3f3c57" d="M25.32 11.2c.98.93 2 1.8 2.88 2.81.39.45.76.92 1.04 1.44.4.75.03 1.57-.66 1.61H24.3a3.36 3.36 0 0 1-2.73-1.07c-.6-.59-1.14-1.21-1.71-1.82a3.77 3.77 0 0 0-.77-.66c-.59-.37-1.1-.26-1.43.33a4.3 4.3 0 0 0-.45 1.94c-.05.98-.35 1.24-1.36 1.28-2.17.1-4.22-.22-6.13-1.28a13.37 13.37 0 0 1-4.13-3.74A50.24 50.24 0 0 1 .16 2.66c-.34-.74-.1-1.14.75-1.15 1.4-.03 2.8-.02 4.2 0 .56.01.94.32 1.16.84.75 1.8 1.68 3.52 2.84 5.11.31.42.63.84 1.08 1.14.5.33.87.22 1.1-.31.15-.34.22-.71.25-1.07.11-1.26.13-2.51-.07-3.76a1.59 1.59 0 0 0-1.37-1.43c-.41-.07-.35-.22-.15-.45.34-.39.67-.63 1.31-.63h4.84c.77.14.93.47 1.04 1.22v5.21c0 .29.15 1.14.69 1.33.42.14.7-.19.96-.46a16.06 16.06 0 0 0 2.73-4.06c.33-.64.61-1.31.88-1.97.2-.5.52-.74 1.1-.73l4.66.01c.14 0 .28 0 .41.02.78.13 1 .46.76 1.2-.39 1.17-1.13 2.14-1.85 3.11-.78 1.05-1.61 2.05-2.38 3.1-.71.96-.66 1.44.22 2.27z"/></svg>